# xmcd
#
# Track frame offsets:
# 150
# 11750
# 24017
# 33055
# 43840
# 53162
# 64675
# 77342
# 90930
# 100812
# 110797
# 123712
# 136290
# 147162
# 163915
# 177187
# 186002
# 196937
# 209197
# 221617
# 231515
# 247017
# 259925
# 273520
#
# Disc length: 3777 seconds
#
#
# Revision: 0
# Processed by: cddbd v1.5.2PL0 Copyright (c) Steve Scherf et al.
# Submitted via: FreeRIP 2.951 
#
DISCID=5c0ebf18
DTITLE=Patsy Cline - Her Legandary Recordings [CD1]
DYEAR=1900
DGENRE=Country
TTITLE0=Sweet Dreams
TTITLE1=Crazy
TTITLE2=Walking After Midnight
TTITLE3=I Love You So Much It Hurts
TTITLE4=Back in My Baby's Arms
TTITLE5=Lonely Street
TTITLE6=I Fall to Pieces
TTITLE7=She's Got You
TTITLE8=Have You Ever Been Lonely
TTITLE9=Foolin' Around
TTITLE10=Someday You'll Want Me To Want You
TTITLE11=Always
TTITLE12=Crazy Arms
TTITLE13=Faded Love
TTITLE14=I Cant Help It If I'm Still in Love With You
TTITLE15=You Were Only Fooling
TTITLE16=Leaving on Your Mind
TTITLE17=Does Your Heart Beat for Me
TTITLE18=You Made Me Love You
TTITLE19=Heartaches
TTITLE20=Why Can't He Be You
TTITLE21=You're Stronger Than Me
TTITLE22=So Wrong
TTITLE23=Strange
EXTD=
EXTT0=
EXTT1=
EXTT2=
EXTT3=
EXTT4=
EXTT5=
EXTT6=
EXTT7=
EXTT8=
EXTT9=
EXTT10=
EXTT11=
EXTT12=
EXTT13=
EXTT14=
EXTT15=
EXTT16=
EXTT17=
EXTT18=
EXTT19=
EXTT20=
EXTT21=
EXTT22=
EXTT23=
PLAYORDER=
